<svg id="visual" viewBox="0 0 900 600" width="900" height="600" xmlns="http://www.w3.org/2000/svg" xmlns:xlink="http://www.w3.org/1999/xlink" version="1.1"><rect x="0" y="0" width="900" height="600" fill="#ffffff"></rect><g transform="translate(421.79628988724903 296.923448486681)"><path d="M151.4 -293.5C176.6 -247.8 163.6 -167.4 217.5 -112.7C271.5 -58 392.2 -29 442.2 28.8C492.1 86.7 471.2 173.3 421.3 235C371.4 296.6 292.4 333.2 217.4 362.4C142.3 391.5 71.2 413.3 8.2 399.1C-54.8 385 -109.7 334.9 -152 286.9C-194.2 238.8 -224 192.6 -221.6 145.2C-219.2 97.7 -184.6 48.8 -228.9 -25.6C-273.2 -100 -396.4 -200 -412.5 -271.2C-428.6 -342.3 -337.5 -384.6 -250.9 -394.8C-164.3 -405 -82.2 -383 -9.5 -366.5C63.2 -350.1 126.3 -339.1 151.4 -293.5" fill="#0077b6"></path></g></svg>