<svg id="visual" viewBox="0 0 900 600" width="900" height="600" xmlns="http://www.w3.org/2000/svg" xmlns:xlink="http://www.w3.org/1999/xlink" version="1.1"><rect x="0" y="0" width="900" height="600" fill="#ffffff"></rect><g transform="translate(451.44054120073133 273.99115524857496)"><path d="M88.5 -182.2C102.1 -145.5 91.6 -96.2 135.4 -63.7C179.1 -31.3 277.1 -15.6 303.1 15C329.1 45.7 283.2 91.3 230.4 108.1C177.5 124.8 117.8 112.6 78.2 135.5C38.7 158.3 19.3 216.2 -20.2 251.1C-59.7 286 -119.3 298 -157.9 274.6C-196.4 251.2 -213.8 192.3 -242.3 140.7C-270.8 89 -310.4 44.5 -313.3 -1.7C-316.2 -47.8 -282.4 -95.7 -236.4 -117.2C-190.5 -138.7 -132.5 -133.9 -91.1 -154.4C-49.7 -175 -24.8 -221 6.3 -232C37.5 -243 75 -218.9 88.5 -182.2" fill="#0077b6"></path></g></svg>