<?xml version="1.0" standalone="no"?>
<!DOCTYPE svg PUBLIC "-//W3C//DTD SVG 20010904//EN"
 "http://www.w3.org/TR/2001/REC-SVG-20010904/DTD/svg10.dtd">
<svg version="1.0" xmlns="http://www.w3.org/2000/svg"
 width="50.000000pt" height="50.000000pt" viewBox="0 0 50.000000 50.000000"
 preserveAspectRatio="xMidYMid meet">

<g transform="translate(0.000000,50.000000) scale(0.100000,-0.100000)"
fill="#000000" stroke="none">
<path d="M164 455 c-4 -9 -2 -21 4 -27 15 -15 44 -1 40 19 -4 23 -36 29 -44 8z"/>
<path d="M294 455 c-4 -9 -2 -21 4 -27 15 -15 44 -1 40 19 -4 23 -36 29 -44 8z"/>
<path d="M152 368 c7 -20 69 -58 95 -58 28 0 74 22 93 45 23 27 2 29 -30 1
-40 -33 -80 -33 -118 -1 -33 28 -46 32 -40 13z"/>
<path d="M80 339 c-14 -5 -38 -30 -54 -55 -24 -38 -26 -48 -15 -55 8 -5 20 -9
27 -9 8 0 12 -19 12 -63 l0 -64 100 -37 100 -37 100 37 100 36 0 64 c0 44 4
64 13 64 6 0 18 4 26 9 21 13 -35 98 -73 111 -36 13 -46 13 -46 0 0 -5 7 -10
15 -10 34 0 10 -17 -59 -42 l-75 -27 -75 27 c-71 25 -95 42 -61 42 8 0 15 5
15 10 0 12 -16 12 -50 -1z m148 -94 c2 -2 -4 -17 -14 -33 l-17 -30 -81 29
c-44 17 -82 32 -84 34 -2 2 4 17 14 33 l17 30 81 -29 c44 -17 82 -32 84 -34z
m240 0 c-2 -2 -40 -17 -84 -34 l-81 -29 -17 30 c-10 16 -16 31 -14 33 2 2 39
17 83 33 l80 29 19 -29 c10 -16 17 -31 14 -33z m-268 -85 c3 0 13 12 22 28 17
27 17 26 18 -55 0 -46 -3 -83 -7 -83 -5 0 -42 13 -83 28 l-75 28 -3 51 -3 52
62 -25 c35 -13 65 -24 69 -24z m100 0 c4 0 34 11 69 24 l62 25 -3 -52 -3 -51
-70 -27 c-38 -15 -76 -28 -82 -28 -10 -1 -13 22 -13 82 1 81 1 82 18 55 9 -16
19 -28 22 -28z"/>
</g>
</svg>
