<?xml version="1.0" standalone="no"?>
<!DOCTYPE svg PUBLIC "-//W3C//DTD SVG 20010904//EN"
 "http://www.w3.org/TR/2001/REC-SVG-20010904/DTD/svg10.dtd">
<svg version="1.0" xmlns="http://www.w3.org/2000/svg"
 width="50.000000pt" height="50.000000pt" viewBox="0 0 50.000000 50.000000"
 preserveAspectRatio="xMidYMid meet">

<g transform="translate(0.000000,50.000000) scale(0.100000,-0.100000)"
fill="#000000" stroke="none">
<path d="M5 407 c-3 -7 -4 -78 -3 -157 l3 -145 30 -3 c16 -2 39 -15 52 -28 28
-31 58 -31 87 1 20 22 32 25 91 25 59 0 71 -3 91 -25 32 -34 55 -31 103 13 39
37 41 41 41 99 0 56 -3 65 -40 112 -40 50 -41 51 -95 51 -53 0 -54 0 -57 33
l-3 32 -148 3 c-115 2 -149 0 -152 -11z m285 -147 l0 -140 -46 0 c-37 0 -52 5
-70 25 -29 32 -59 32 -88 0 -13 -14 -33 -25 -45 -25 -20 0 -21 4 -21 140 l0
140 135 0 135 0 0 -140z m70 22 c0 -26 5 -53 12 -60 7 -7 34 -12 60 -12 l48 0
0 -45 c0 -25 -3 -45 -6 -45 -4 0 -17 11 -30 25 -29 32 -59 32 -88 0 -40 -43
-46 -34 -46 80 l0 105 25 0 c23 0 25 -3 25 -48z m67 26 c11 -13 28 -35 38 -50
l17 -28 -51 0 -51 0 0 50 c0 56 14 64 47 28z m-267 -173 c26 -32 -13 -81 -47
-59 -10 6 -19 19 -21 28 -8 38 43 61 68 31z m270 0 c26 -32 -13 -81 -47 -59
-23 14 -28 41 -13 59 16 19 44 19 60 0z"/>
<path d="M101 366 c-87 -48 -50 -186 49 -186 51 0 100 49 100 99 0 75 -83 124
-149 87z m104 -31 c33 -32 33 -78 0 -110 -32 -33 -78 -33 -110 0 -50 49 -15
135 55 135 19 0 40 -9 55 -25z"/>
<path d="M140 310 c0 -18 -6 -33 -15 -36 -8 -4 -15 -13 -15 -20 0 -12 4 -12
25 2 19 12 25 25 25 50 0 19 -4 34 -10 34 -5 0 -10 -14 -10 -30z"/>
</g>
</svg>
